<svg width="870" height="509" viewBox="0 0 870 509" fill="none" xmlns="http://www.w3.org/2000/svg">
    <mask id="mask0_232_3261" style="mask-type:alpha" maskUnits="userSpaceOnUse" x="0" y="0" width="870" height="509">
        <rect y="0.0949707" width="870" height="508.905" rx="16" fill="white"/>
    </mask>
    <g mask="url(#mask0_232_3261)">
        <rect y="0.0949707" width="870" height="508.905" fill="#F8B602"/>
        <ellipse opacity="0.5" cx="18.5597" cy="188.235" rx="278.4" ry="370.113" fill="#EB5757"/>
        <ellipse opacity="0.5" cx="259.84" cy="589.191" rx="278.4" ry="370.113" fill="#A6C44A"/>
    </g>
    <path opacity="0.9" d="M53.3902 317.296L63.6622 334H58.7182L50.7022 320.944L43.0702 334H38.2222L48.4462 317.296L38.1742 300.544H43.0702L51.1342 313.648L58.8142 300.544H63.7102L53.3902 317.296ZM83.2027 317.296L93.4747 334H88.5307L80.5147 320.944L72.8827 334H68.0347L78.2587 317.296L67.9867 300.544H72.8827L80.9467 313.648L88.6267 300.544H93.5227L83.2027 317.296ZM113.015 317.296L123.287 334H118.343L110.327 320.944L102.695 334H97.8472L108.071 317.296L97.7992 300.544H102.695L110.759 313.648L118.439 300.544H123.335L113.015 317.296ZM142.828 317.296L153.1 334H148.156L140.14 320.944L132.508 334H127.66L137.884 317.296L127.612 300.544H132.508L140.572 313.648L148.252 300.544H153.148L142.828 317.296ZM185.437 317.296L195.709 334H190.765L182.749 320.944L175.117 334H170.269L180.493 317.296L170.221 300.544H175.117L183.181 313.648L190.861 300.544H195.757L185.437 317.296ZM215.25 317.296L225.522 334H220.578L212.562 320.944L204.93 334H200.082L210.306 317.296L200.034 300.544H204.93L212.994 313.648L220.674 300.544H225.57L215.25 317.296ZM245.062 317.296L255.334 334H250.39L242.374 320.944L234.742 334H229.894L240.118 317.296L229.846 300.544H234.742L242.806 313.648L250.486 300.544H255.382L245.062 317.296ZM274.875 317.296L285.147 334H280.203L272.187 320.944L264.555 334H259.707L269.931 317.296L259.659 300.544H264.555L272.619 313.648L280.299 300.544H285.195L274.875 317.296ZM317.484 317.296L327.756 334H322.812L314.796 320.944L307.164 334H302.316L312.54 317.296L302.268 300.544H307.164L315.228 313.648L322.908 300.544H327.804L317.484 317.296ZM347.296 317.296L357.568 334H352.624L344.608 320.944L336.976 334H332.128L342.352 317.296L332.08 300.544H336.976L345.04 313.648L352.72 300.544H357.616L347.296 317.296ZM377.109 317.296L387.381 334H382.437L374.421 320.944L366.789 334H361.941L372.165 317.296L361.893 300.544H366.789L374.853 313.648L382.533 300.544H387.429L377.109 317.296ZM406.921 317.296L417.193 334H412.249L404.233 320.944L396.601 334H391.753L401.977 317.296L391.705 300.544H396.601L404.665 313.648L412.345 300.544H417.241L406.921 317.296ZM449.531 317.296L459.803 334H454.859L446.843 320.944L439.211 334H434.363L444.587 317.296L434.315 300.544H439.211L447.275 313.648L454.955 300.544H459.851L449.531 317.296ZM479.343 317.296L489.615 334H484.671L476.655 320.944L469.023 334H464.175L474.399 317.296L464.127 300.544H469.023L477.087 313.648L484.767 300.544H489.663L479.343 317.296ZM509.156 317.296L519.428 334H514.484L506.468 320.944L498.836 334H493.988L504.212 317.296L493.94 300.544H498.836L506.9 313.648L514.58 300.544H519.476L509.156 317.296ZM538.968 317.296L549.24 334H544.296L536.28 320.944L528.648 334H523.8L534.024 317.296L523.752 300.544H528.648L536.712 313.648L544.392 300.544H549.288L538.968 317.296Z" fill="white"/>
</svg>
