<svg width="48" height="27" viewBox="0 0 48 27" fill="none" xmlns="http://www.w3.org/2000/svg">
    <path d="M24 8.82692C20.8607 8.82692 18.3158 10.9191 18.3158 13.5C18.3158 16.0809 20.8607 18.1731 24 18.1731C27.1393 18.1731 29.6842 16.0809 29.6842 13.5C29.6842 10.9191 27.1393 8.82692 24 8.82692Z" fill="#A098AE"/>
    <path fill-rule="evenodd" clip-rule="evenodd" d="M24 0C17.3867 0 11.4392 2.18365 7.15356 4.88774C5.00795 6.24154 3.24742 7.74512 2.01219 9.20841C0.80049 10.6438 0 12.1532 0 13.5C0 14.8468 0.80049 16.3562 2.01219 17.7916C3.24742 19.2549 5.00795 20.7585 7.15356 22.1123C11.4392 24.8164 17.3867 27 24 27C30.6133 27 36.5608 24.8164 40.8464 22.1123C42.992 20.7585 44.7526 19.2549 45.9878 17.7916C47.1995 16.3562 48 14.8468 48 13.5C48 12.1532 47.1995 10.6438 45.9878 9.20841C44.7526 7.74512 42.992 6.24154 40.8464 4.88774C36.5608 2.18365 30.6133 0 24 0ZM14.5263 13.5C14.5263 9.19855 18.7678 5.71154 24 5.71154C29.2322 5.71154 33.4737 9.19855 33.4737 13.5C33.4737 17.8014 29.2322 21.2885 24 21.2885C18.7678 21.2885 14.5263 17.8014 14.5263 13.5Z" fill="#A098AE"/>
</svg>
