<svg width="41" height="40" viewBox="0 0 41 40" fill="none" xmlns="http://www.w3.org/2000/svg">
    <path d="M33.8731 9.32475C33.8731 7.99536 32.7935 6.92195 31.4664 6.92195C30.1392 6.92195 29.0586 7.99536 29.0586 9.32475C29.0586 10.6492 30.1392 11.7227 31.4664 11.7227C32.7935 11.7227 33.8731 10.6492 33.8731 9.32475Z" fill="url(#paint0_linear_228_988)"/>
    <path d="M37.0807 28.0807C36.9915 30.0309 36.6647 31.0904 36.3933 31.7942C36.0288 32.7273 35.5941 33.3944 34.8889 34.0942C34.1916 34.794 33.5231 35.2269 32.5881 35.5867C31.8829 35.8615 30.8172 36.1886 28.8631 36.2816C26.7506 36.3745 26.1246 36.3943 20.7673 36.3943C15.4151 36.3943 14.7841 36.3745 12.6716 36.2816C10.7175 36.1886 9.65675 35.8615 8.95152 35.5867C8.01162 35.2269 7.34806 34.794 6.64684 34.0942C5.94064 33.3944 5.50586 32.7273 5.14634 31.7942C4.87491 31.0904 4.54317 30.0309 4.45893 28.0807C4.35598 25.9725 4.33711 25.3379 4.33711 20.0025C4.33711 14.6562 4.35598 14.0265 4.45893 11.9182C4.54317 9.96814 4.87491 8.90956 5.14634 8.19983C5.50586 7.26778 5.94064 6.60453 6.64684 5.90474C7.34806 5.20598 8.01162 4.77202 8.95152 4.40834C9.65675 4.13257 10.7175 3.81033 12.6716 3.71744C14.7841 3.62448 15.4151 3.60075 20.7673 3.60075C26.1246 3.60075 26.7506 3.62448 28.8631 3.71744C30.8172 3.81033 31.8829 4.13257 32.5881 4.40834C33.5231 4.77202 34.1916 5.20598 34.8889 5.90474C35.5941 6.60453 36.0288 7.26778 36.3933 8.19983C36.6647 8.90956 36.9915 9.96814 37.0807 11.9182C37.1787 14.0265 37.2025 14.6562 37.2025 20.0025C37.2025 25.3379 37.1787 25.9725 37.0807 28.0807ZM40.6889 11.7542C40.5908 9.62314 40.254 8.16721 39.7539 6.89913C39.2448 5.58353 38.5624 4.46861 37.4452 3.35368C36.3329 2.24372 35.2157 1.56268 33.8975 1.04873C32.6218 0.554501 31.1678 0.214462 29.0315 0.121578C26.8951 0.0187569 26.2127 0 20.7673 0C15.3269 0 14.6396 0.0187569 12.5032 0.121578C10.3718 0.214462 8.91883 0.554501 7.63724 1.04873C6.32393 1.56268 5.20673 2.24372 4.0945 3.35368C2.9773 4.46861 2.29487 5.58353 1.78084 6.89913C1.2856 8.16721 0.948879 9.62314 0.84585 11.7542C0.752774 13.8862 0.729004 14.5682 0.729004 20.0025C0.729004 25.4318 0.752774 26.1128 0.84585 28.2448C0.948879 30.3719 1.2856 31.8268 1.78084 33.1009C2.29487 34.4115 2.9773 35.5314 4.0945 36.6414C5.20673 37.7513 6.32393 38.4373 7.63724 38.9503C8.91883 39.4445 10.3718 39.7806 12.5032 39.8784C14.6396 39.9763 15.3269 40 20.7673 40C26.2127 40 26.8951 39.9763 29.0315 39.8784C31.1678 39.7806 32.6218 39.4445 33.8975 38.9503C35.2157 38.4373 36.3329 37.7513 37.4452 36.6414C38.5624 35.5314 39.2448 34.4115 39.7539 33.1009C40.254 31.8268 40.5908 30.3719 40.6889 28.2448C40.7869 26.1128 40.8107 25.4318 40.8107 20.0025C40.8107 14.5682 40.7869 13.8862 40.6889 11.7542Z" fill="url(#paint1_linear_228_988)"/>
    <path d="M20.7675 26.6633C17.0802 26.6633 14.0881 23.6822 14.0881 20.0024C14.0881 16.3166 17.0802 13.3316 20.7675 13.3316C24.4559 13.3316 27.452 16.3166 27.452 20.0024C27.452 23.6822 24.4559 26.6633 20.7675 26.6633ZM20.7675 9.72593C15.0835 9.72593 10.48 14.3299 10.48 20.0024C10.48 25.67 15.0835 30.269 20.7675 30.269C26.4516 30.269 31.0601 25.67 31.0601 20.0024C31.0601 14.3299 26.4516 9.72593 20.7675 9.72593Z" fill="url(#paint2_linear_228_988)"/>
    <defs>
        <linearGradient id="paint0_linear_228_988" x1="1.08994" y1="39.5865" x2="37.3975" y2="3.20497" gradientUnits="userSpaceOnUse">
            <stop stop-color="#FFD521"/>
            <stop offset="0.05" stop-color="#FFD521"/>
            <stop offset="0.501119" stop-color="#F50000"/>
            <stop offset="0.95" stop-color="#B900B4"/>
            <stop offset="0.950079" stop-color="#B900B4"/>
            <stop offset="1" stop-color="#B900B4"/>
        </linearGradient>
        <linearGradient id="paint1_linear_228_988" x1="1.09054" y1="39.6362" x2="37.4279" y2="3.22471" gradientUnits="userSpaceOnUse">
            <stop stop-color="#FFD521"/>
            <stop offset="0.05" stop-color="#FFD521"/>
            <stop offset="0.501119" stop-color="#F50000"/>
            <stop offset="0.95" stop-color="#B900B4"/>
            <stop offset="0.950079" stop-color="#B900B4"/>
            <stop offset="1" stop-color="#B900B4"/>
        </linearGradient>
        <linearGradient id="paint2_linear_228_988" x1="1.10016" y1="39.6372" x2="37.4287" y2="3.23439" gradientUnits="userSpaceOnUse">
            <stop stop-color="#FFD521"/>
            <stop offset="0.05" stop-color="#FFD521"/>
            <stop offset="0.501119" stop-color="#F50000"/>
            <stop offset="0.95" stop-color="#B900B4"/>
            <stop offset="0.950079" stop-color="#B900B4"/>
            <stop offset="1" stop-color="#B900B4"/>
        </linearGradient>
    </defs>
</svg>
