<svg width="39" height="39" viewBox="0 0 39 39" fill="none" xmlns="http://www.w3.org/2000/svg">
    <path d="M11.375 16.25C9.58007 16.25 8.125 17.7051 8.125 19.5C8.125 21.2949 9.58007 22.75 11.375 22.75C13.1699 22.75 14.625 21.2949 14.625 19.5C14.625 17.7051 13.1699 16.25 11.375 16.25Z" fill="black"/>
    <path fill-rule="evenodd" clip-rule="evenodd" d="M11.375 10.1562C6.21459 10.1562 2.03125 14.3396 2.03125 19.5C2.03125 24.6604 6.21459 28.8438 11.375 28.8438C14.9184 28.8438 17.9989 26.8715 19.5826 23.9688H24.7812V27.625C24.7812 28.2981 25.3269 28.8438 26 28.8438H31.6875C32.3606 28.8438 32.9062 28.2981 32.9062 27.625V23.9688H35.75C36.4231 23.9688 36.9688 23.4231 36.9688 22.75V17.875C36.9688 16.3044 35.6956 15.0312 34.125 15.0312H19.5826C17.9989 12.1285 14.9184 10.1562 11.375 10.1562ZM4.46875 19.5C4.46875 15.6858 7.56078 12.5938 11.375 12.5938C14.2051 12.5938 16.6403 14.2962 17.7071 16.738C17.9011 17.1819 18.3395 17.4688 18.8239 17.4688H34.125C34.3494 17.4688 34.5312 17.6506 34.5312 17.875V21.5312H31.6875C31.0144 21.5312 30.4688 22.0769 30.4688 22.75V26.4062H27.2188V22.75C27.2188 22.0769 26.6731 21.5312 26 21.5312H18.8239C18.3395 21.5312 17.9011 21.8181 17.7071 22.262C16.6403 24.7038 14.2051 26.4062 11.375 26.4062C7.56078 26.4062 4.46875 23.3142 4.46875 19.5Z" fill="black"/>
</svg>
