<svg width="40" height="41" viewBox="0 0 40 41" fill="none" xmlns="http://www.w3.org/2000/svg">
    <path d="M19.9997 37.1666C17.7219 37.1666 15.5691 36.7291 13.5413 35.8541C11.5136 34.9791 9.74273 33.7846 8.22884 32.2708C6.71495 30.7569 5.52051 28.986 4.64551 26.9583C3.77051 24.9305 3.33301 22.7777 3.33301 20.4999C3.33301 18.1944 3.77051 16.0346 4.64551 14.0208C5.52051 12.0069 6.71495 10.243 8.22884 8.72909C9.74273 7.2152 11.5136 6.02075 13.5413 5.14575C15.5691 4.27075 17.7219 3.83325 19.9997 3.83325C22.3052 3.83325 24.465 4.27075 26.4788 5.14575C28.4927 6.02075 30.2566 7.2152 31.7705 8.72909C33.2844 10.243 34.4788 12.0069 35.3538 14.0208C36.2288 16.0346 36.6663 18.1944 36.6663 20.4999C36.6663 22.7777 36.2288 24.9305 35.3538 26.9583C34.4788 28.986 33.2844 30.7569 31.7705 32.2708C30.2566 33.7846 28.4927 34.9791 26.4788 35.8541C24.465 36.7291 22.3052 37.1666 19.9997 37.1666ZM19.9997 33.7499C20.7219 32.7499 21.3469 31.7083 21.8747 30.6249C22.4025 29.5416 22.833 28.3888 23.1663 27.1666H16.833C17.1663 28.3888 17.5969 29.5416 18.1247 30.6249C18.6525 31.7083 19.2775 32.7499 19.9997 33.7499ZM15.6663 33.0833C15.1663 32.1666 14.7288 31.2152 14.3538 30.2291C13.9788 29.243 13.6663 28.2221 13.4163 27.1666H8.49967C9.30523 28.5555 10.3122 29.7638 11.5205 30.7916C12.7288 31.8194 14.1108 32.5833 15.6663 33.0833ZM24.333 33.0833C25.8886 32.5833 27.2705 31.8194 28.4788 30.7916C29.6872 29.7638 30.6941 28.5555 31.4997 27.1666H26.583C26.333 28.2221 26.0205 29.243 25.6455 30.2291C25.2705 31.2152 24.833 32.1666 24.333 33.0833ZM7.08301 23.8333H12.7497C12.6663 23.2777 12.6038 22.7291 12.5622 22.1874C12.5205 21.6458 12.4997 21.0833 12.4997 20.4999C12.4997 19.9166 12.5205 19.3541 12.5622 18.8124C12.6038 18.2708 12.6663 17.7221 12.7497 17.1666H7.08301C6.94412 17.7221 6.83995 18.2708 6.77051 18.8124C6.70106 19.3541 6.66634 19.9166 6.66634 20.4999C6.66634 21.0833 6.70106 21.6458 6.77051 22.1874C6.83995 22.7291 6.94412 23.2777 7.08301 23.8333ZM16.083 23.8333H23.9163C23.9997 23.2777 24.0622 22.7291 24.1038 22.1874C24.1455 21.6458 24.1663 21.0833 24.1663 20.4999C24.1663 19.9166 24.1455 19.3541 24.1038 18.8124C24.0622 18.2708 23.9997 17.7221 23.9163 17.1666H16.083C15.9997 17.7221 15.9372 18.2708 15.8955 18.8124C15.8538 19.3541 15.833 19.9166 15.833 20.4999C15.833 21.0833 15.8538 21.6458 15.8955 22.1874C15.9372 22.7291 15.9997 23.2777 16.083 23.8333ZM27.2497 23.8333H32.9163C33.0552 23.2777 33.1594 22.7291 33.2288 22.1874C33.2983 21.6458 33.333 21.0833 33.333 20.4999C33.333 19.9166 33.2983 19.3541 33.2288 18.8124C33.1594 18.2708 33.0552 17.7221 32.9163 17.1666H27.2497C27.333 17.7221 27.3955 18.2708 27.4372 18.8124C27.4788 19.3541 27.4997 19.9166 27.4997 20.4999C27.4997 21.0833 27.4788 21.6458 27.4372 22.1874C27.3955 22.7291 27.333 23.2777 27.2497 23.8333ZM26.583 13.8333H31.4997C30.6941 12.4444 29.6872 11.236 28.4788 10.2083C27.2705 9.18047 25.8886 8.41659 24.333 7.91659C24.833 8.83325 25.2705 9.78464 25.6455 10.7708C26.0205 11.7569 26.333 12.7777 26.583 13.8333ZM16.833 13.8333H23.1663C22.833 12.611 22.4025 11.4583 21.8747 10.3749C21.3469 9.29159 20.7219 8.24992 19.9997 7.24992C19.2775 8.24992 18.6525 9.29159 18.1247 10.3749C17.5969 11.4583 17.1663 12.611 16.833 13.8333ZM8.49967 13.8333H13.4163C13.6663 12.7777 13.9788 11.7569 14.3538 10.7708C14.7288 9.78464 15.1663 8.83325 15.6663 7.91659C14.1108 8.41659 12.7288 9.18047 11.5205 10.2083C10.3122 11.236 9.30523 12.4444 8.49967 13.8333Z" fill="#1D1B20"/>
</svg>
