<svg width="40" height="41" viewBox="0 0 40 41" fill="none" xmlns="http://www.w3.org/2000/svg">
    <path d="M30.55 23.4624C30.3745 23.3539 30.231 23.2006 30.1344 23.0182C30.0377 22.8359 29.9913 22.6311 30 22.4249V18.3624C30.0077 16.324 29.4205 14.3275 28.3104 12.6179C27.2002 10.9082 25.6153 9.55963 23.75 8.73745C23.6136 7.85231 23.1649 7.04522 22.4851 6.46217C21.8053 5.87911 20.9393 5.55859 20.0437 5.55859C19.1482 5.55859 18.2821 5.87911 17.6024 6.46217C16.9226 7.04522 16.4739 7.85231 16.3375 8.73745C15.1223 9.22146 14.0139 9.93918 13.075 10.8499C12.106 11.7722 11.3339 12.8812 10.8054 14.1101C10.2769 15.339 10.0029 16.6622 9.99998 17.9999V22.4249C10.0086 22.6311 9.96227 22.8359 9.86561 23.0182C9.76895 23.2006 9.6255 23.3539 9.44998 23.4624C8.75669 23.8288 8.1957 24.4033 7.84591 25.1052C7.49612 25.807 7.37514 26.6008 7.49998 27.3749C7.67404 28.2713 8.16003 29.077 8.87169 29.6491C9.58335 30.2211 10.4747 30.5226 11.3875 30.4999H15C15 31.826 15.5268 33.0978 16.4644 34.0355C17.4021 34.9732 18.6739 35.4999 20 35.4999C21.3261 35.4999 22.5978 34.9732 23.5355 34.0355C24.4732 33.0978 25 31.826 25 30.4999H28.6125C29.5253 30.5226 30.4166 30.2211 31.1283 29.6491C31.8399 29.077 32.3259 28.2713 32.5 27.3749C32.6248 26.6008 32.5038 25.807 32.1541 25.1052C31.8043 24.4033 31.2433 23.8288 30.55 23.4624ZM20 32.9999C19.3369 32.9999 18.7011 32.7366 18.2322 32.2677C17.7634 31.7989 17.5 31.163 17.5 30.4999H22.5C22.5 31.163 22.2366 31.7989 21.7677 32.2677C21.2989 32.7366 20.663 32.9999 20 32.9999ZM28.6125 27.9999H11.3875C11.0735 28.0154 10.7637 27.9218 10.5109 27.735C10.258 27.5482 10.0775 27.2796 9.99998 26.9749C9.9526 26.7151 9.98877 26.4468 10.1033 26.2088C10.2178 25.9707 10.4048 25.7751 10.6375 25.6499C11.208 25.3281 11.6817 24.8591 12.0092 24.2918C12.3368 23.7246 12.5063 23.0799 12.5 22.4249V17.9999C12.499 16.9953 12.6999 16.0008 13.0907 15.0753C13.4815 14.1498 14.0543 13.3123 14.775 12.6124C15.3669 12.0333 16.0567 11.5635 16.8125 11.2249C17.8067 10.7458 18.8964 10.498 20 10.4999H20.2375C21.2592 10.5355 22.2612 10.7914 23.175 11.2499C24.4819 11.9211 25.5776 12.9407 26.3409 14.196C27.1043 15.4513 27.5054 16.8933 27.5 18.3624V22.4249C27.4924 23.0787 27.66 23.7225 27.9853 24.2896C28.3107 24.8568 28.7818 25.3264 29.35 25.6499C29.5826 25.7725 29.7706 25.9654 29.8873 26.201C30.004 26.4367 30.0435 26.7031 30 26.9624C29.9249 27.2695 29.7455 27.5409 29.4924 27.7301C29.2393 27.9194 28.9282 28.0148 28.6125 27.9999Z" fill="#2E2E2E"/>
</svg>
