<svg width="40" height="41" viewBox="0 0 40 41" fill="none" xmlns="http://www.w3.org/2000/svg">
    <path d="M10.4167 13C10.4167 9.54822 13.2149 6.75 16.6667 6.75C20.1184 6.75 22.9167 9.54822 22.9167 13C22.9167 16.4518 20.1184 19.25 16.6667 19.25C13.2149 19.25 10.4167 16.4518 10.4167 13Z" fill="black"/>
    <path d="M3.75 28.8333C3.75 25.3816 6.54822 22.5833 10 22.5833H10.5681C10.8756 22.5833 11.1812 22.632 11.4735 22.7274L12.916 23.1984C14.5185 23.7217 16.2031 23.9009 17.8619 23.736C18.1288 23.7095 18.3339 23.9868 18.2329 24.2353C17.7603 25.3973 17.5 26.6683 17.5 28C17.5 30.087 18.1393 32.0247 19.2329 33.6279C19.3855 33.8518 19.2388 34.1661 18.968 34.1755C14.6016 34.3259 10.2242 34.048 5.89879 33.3419C4.65981 33.1396 3.75 32.0692 3.75 30.8138V28.8333Z" fill="black"/>
    <path fill-rule="evenodd" clip-rule="evenodd" d="M20 28C20 29.6198 20.5135 31.1196 21.3866 32.3457C21.8731 33.0288 22.4712 33.627 23.1543 34.1134C24.3804 34.9865 25.8802 35.5 27.5 35.5C31.6421 35.5 35 32.1421 35 28C35 26.3802 34.4865 24.8804 33.6134 23.6543C33.127 22.9712 32.5288 22.3731 31.8457 21.8866C30.6196 21.0135 29.1198 20.5 27.5 20.5C23.3579 20.5 20 23.8579 20 28ZM27.5 33C26.5727 33 25.7044 32.7476 24.96 32.3077L31.8077 25.46C32.2476 26.2044 32.5 27.0727 32.5 28C32.5 30.7614 30.2614 33 27.5 33ZM23.1923 30.54L30.04 23.6923C29.2956 23.2524 28.4273 23 27.5 23C24.7386 23 22.5 25.2386 22.5 28C22.5 28.9273 22.7524 29.7956 23.1923 30.54Z" fill="black"/>
</svg>
